<?xml version="1.0" encoding="utf-8"?>
<!-- Generator: Adobe Illustrator 15.0.2, SVG Export Plug-In . SVG Version: 6.00 Build 0)  -->
<!DOCTYPE svg PUBLIC "-//W3C//DTD SVG 1.1//EN" "http://www.w3.org/Graphics/SVG/1.1/DTD/svg11.dtd" [
	<!ENTITY st0 "fill:#F69163;">
]>
<svg version="1.1" id="Layer_1" xmlns="http://www.w3.org/2000/svg" xmlns:xlink="http://www.w3.org/1999/xlink" x="0px" y="0px"
	 width="116.928px" height="116.929px" viewBox="0 0 116.928 116.929" style="enable-background:new 0 0 116.928 116.929;"
	 xml:space="preserve">
<path style="&st0;" d="M0,0v116.929h116.928V0H0z M111.614,111.614H5.314V5.315h106.299V111.614z"/>
<g>
	<path style="&st0;" d="M33.152,31.519v10.124h5.138V31.519h4.912v25.273H38.29V46.218h-5.138v10.574H28.24V31.519H33.152z"/>
	<path style="&st0;" d="M46.803,31.894c1.537-0.3,3.488-0.487,5.362-0.487c2.7,0,5.138,0.412,6.75,1.875
		c1.537,1.387,2.025,3.074,2.025,5.249c0,2.7-1.35,5.138-3.9,6.3v0.075c1.726,0.713,2.587,2.287,3.076,5.024
		c0.486,2.813,1.162,5.925,1.611,6.862H56.59c-0.338-0.712-0.9-3.262-1.275-6.074c-0.449-3.112-1.236-4.013-2.85-4.013h-0.75v10.087
		h-4.912V31.894z M51.715,42.918h0.9c2.137,0,3.338-1.725,3.338-3.938c0-2.175-0.863-3.675-3.038-3.75c-0.45,0-0.938,0.038-1.2,0.15
		V42.918z"/>
	<path style="&st0;" d="M68.252,51.018l-1.125,5.774h-4.762l5.475-25.273h5.887l4.912,25.273h-4.762l-1.088-5.774H68.252z
		 M72.34,47.192l-0.826-5.287c-0.262-1.537-0.6-4.087-0.824-5.737h-0.113c-0.262,1.688-0.637,4.275-0.898,5.737l-0.938,5.287H72.34z
		"/>
	<path style="&st0;" d="M84.077,31.519h4.912V48.73c0,7.274-3.525,8.362-7.088,8.362c-1.012,0-1.949-0.15-2.475-0.375l0.412-4.125
		c0.451,0.149,0.977,0.188,1.613,0.188c1.426,0,2.625-0.563,2.625-3.825V31.519z"/>
</g>
<g>
	<path style="&st0;" d="M28.334,61.023h4.912v21.111h6.45v4.162H28.334V61.023z"/>
	<path style="&st0;" d="M46.334,80.522l-1.125,5.774h-4.763l5.475-25.273h5.888l4.912,25.273h-4.762l-1.088-5.774H46.334z
		 M50.421,76.697l-0.825-5.287c-0.262-1.537-0.6-4.087-0.824-5.737h-0.113c-0.262,1.688-0.637,4.275-0.899,5.737l-0.938,5.287
		H50.421z"/>
	<path style="&st0;" d="M58.559,61.398c1.538-0.3,3.487-0.487,5.362-0.487c2.699,0,5.137,0.412,6.75,1.875
		c1.537,1.387,2.025,3.074,2.025,5.249c0,2.7-1.35,5.138-3.9,6.3v0.075c1.725,0.713,2.588,2.287,3.074,5.024
		c0.488,2.813,1.164,5.925,1.613,6.862h-5.137c-0.338-0.712-0.9-3.262-1.275-6.074c-0.451-3.112-1.238-4.013-2.85-4.013h-0.75
		v10.087h-4.913V61.398z M63.471,72.423h0.898c2.139,0,3.338-1.725,3.338-3.938c0-2.175-0.861-3.675-3.037-3.75
		c-0.449,0-0.938,0.038-1.199,0.15V72.423z"/>
	<path style="&st0;" d="M75.807,61.398c1.389-0.3,3.264-0.487,5.139-0.487c2.924,0,5.25,0.412,6.861,1.949
		c1.5,1.313,2.176,3.413,2.176,5.55c0,2.737-0.826,4.688-2.139,6.075c-1.574,1.688-4.086,2.438-6.148,2.438
		c-0.338,0-0.639,0-0.977-0.038v9.412h-4.912V61.398z M80.719,72.91c0.264,0.038,0.525,0.038,0.826,0.038
		c2.475,0,3.563-1.763,3.563-4.125c0-2.213-0.9-3.938-3.188-3.938c-0.451,0-0.9,0.075-1.201,0.188V72.91z"/>
</g>
</svg>
